<svg width="89" height="15" xmlns="http://www.w3.org/2000/svg" xmlns:sketch="http://www.bohemiancoding.com/sketch/ns"><title>bankid_logo</title><g sketch:type="MSLayerGroup" transform="translate(-6 -77) translate(6 77)" fill="#666"><g id="Group" sketch:type="MSShapeGroup"><path d="M5.428 15h-4.856c-.315 0-.571-.236-.571-.529v-.943c0-.292.256-.529.571-.529h4.857c.315 0 .571.237.571.529v.943c-.001.293-.256.529-.572.529" id="Shape"/><path d="M21.429 15h-4.857c-.315 0-.571-.236-.571-.529v-.943c0-.292.256-.529.571-.529h4.857c.315 0 .571.237.571.529v.943c0 .293-.256.529-.571.529" id="Shape"/><path d="M13.43 7h-4.859c-.315 0-.57-.236-.57-.528v-.943c0-.292.256-.529.57-.529h4.859c.315 0 .57.237.57.529v.942c0 .292-.255.529-.57.529" id="Shape"/><path d="M21.429 7h-4.857c-.315 0-.571-.236-.571-.528v-.943c0-.292.256-.529.571-.529h4.857c.315 0 .571.237.571.529v.942c0 .292-.256.529-.571.529" id="Shape"/><path d="M5.428 3h-4.856c-.315 0-.571-.237-.571-.528v-.944c0-.292.256-.528.571-.528h4.857c.315 0 .571.236.571.528v.944c-.001.291-.256.528-.572.528" id="Shape"/><path d="M21.429 3h-4.857c-.315 0-.571-.237-.571-.528v-.944c0-.292.256-.528.571-.528h4.857c.315 0 .571.236.571.528v.944c0 .291-.256.528-.571.528" id="Shape"/><path d="M5.428 11h-4.856c-.315 0-.571-.237-.571-.528v-.944c0-.292.256-.528.571-.528h4.857c.315 0 .571.236.571.528v.944c-.001.291-.256.528-.572.528" id="Shape"/><path d="M13.43 11h-4.859c-.315 0-.57-.237-.57-.528v-.944c0-.292.256-.528.57-.528h4.859c.315 0 .57.236.57.528v.944c0 .291-.255.528-.57.528" id="Shape"/></g><g sketch:type="MSShapeGroup"><path d="M36.438 11.86v-4.936c0-.451-.168-.838-.505-1.163-.335-.323-.742-.486-1.223-.486h-3.4c-.474 0-.877.162-1.213.486-.336.324-.503.712-.503 1.163v4.935c0 .457.167.847.503 1.168.335.32.739.48 1.213.48h3.4c.48 0 .888-.16 1.223-.486.337-.323.505-.711.505-1.161zm1.562 0c0 .867-.321 1.606-.963 2.219-.643.613-1.419.92-2.326.92h-3.4c-.908 0-1.686-.307-2.336-.921-.65-.613-.975-1.353-.975-2.22v-11.118c0-.204.077-.378.232-.523.156-.144.344-.217.565-.217.215 0 .4.072.558.217.159.144.239.319.239.523v3.49c.509-.296 1.081-.444 1.716-.444h3.4c.907 0 1.683.307 2.326.92.642.612.963 1.353.963 2.219v4.935z" id="Shape"/><path d="M60.999 14.274c0 .201-.077.373-.232.513-.156.142-.34.213-.554.213-.517 0-.776-.243-.776-.726v-7.193c0-.442-.167-.823-.504-1.141-.335-.317-.742-.477-1.224-.477h-3.4c-.472 0-.876.159-1.211.477-.336.318-.504.698-.504 1.141v7.193c0 .201-.079.373-.238.513-.158.142-.344.213-.559.213-.22 0-.41-.071-.564-.213-.156-.14-.232-.312-.232-.513v-7.193c0-.851.325-1.577.975-2.178.649-.602 1.429-.903 2.336-.903h3.4c.909 0 1.685.301 2.327.903.643.601.963 1.327.963 2.178v7.193h-.001z" id="Shape"/><path d="M72 14.258c0 .495-.253.742-.758.742-.201 0-.378-.07-.529-.213l-4.61-4.364c-.412.425-.926.894-1.547 1.41v2.419c0 .205-.077.382-.232.524-.155.145-.337.217-.545.217-.217 0-.4-.072-.553-.217-.151-.143-.227-.318-.227-.523v-13.513c0-.204.076-.378.227-.523.152-.144.335-.217.553-.217.209 0 .39.072.545.217.155.145.232.32.232.523v9.081l6.156-5.813c.152-.147.327-.222.529-.222.505 0 .758.248.758.74 0 .218-.075.398-.228.539l-4.564 4.333 4.564 4.323c.152.139.228.32.228.536" id="Shape"/><path d="M79.578 13.519h.014l-.014-12.042 4.463.001c2.143 0 3.458 1.191 3.458 3.542v4.978c0 2.344-1.29 3.515-3.458 3.515l-4.463.004zm4.398 1.481c3.154 0 5.024-1.74 5.024-5.18v-4.639c0-3.501-1.976-5.179-5.056-5.179l-4.966-.002c-.265 0-.497.096-.689.288-.192.194-.289.43-.289.703v13.017c0 .273.097.511.289.703.192.19.423.289.689.289h4.998z" id="Shape"/><path d="M47.595 11.916v-2.081c-2.095-.014-3.955-.069-4.575.105-1.24.345-1.594 1.108-1.594 1.976 0 .444.151.826.453 1.143.302.319.669.478 1.102.478h3.06c.425 0 .791-.158 1.095-.478.307-.318.459-.699.459-1.143zm1.405.004c0 .85-.289 1.575-.867 2.177-.578.602-1.276.903-2.093.903h-3.06c-.824 0-1.527-.301-2.108-.905-.582-.602-.872-1.328-.872-2.179 0-1.447.781-2.637 2.342-3.22.751-.277 2.393-.223 5.253-.202v-1.421c0-.44-.152-.819-.458-1.136-.305-.316-.67-.475-1.095-.475h-3.06c-.315 0-.626.099-.867.268-.25.177-.44.46-.6.695-.116.169-.283.21-.483.21-.193 0-.358-.073-.498-.222-.139-.149-.21-.323-.21-.523 0-.379.25-.723.708-1.138.617-.56 1.294-.752 1.949-.752h3.06c.816 0 1.515.301 2.093.903.579.601.867 1.327.867 2.177v4.841z" id="Shape"/><path d="M75.6 14.256c0 .206-.077.382-.235.526-.158.144-.347.217-.571.217-.217 0-.404-.072-.56-.217-.158-.145-.235-.32-.235-.526v-13.512c0-.205.077-.38.235-.526.156-.145.343-.217.56-.217.223 0 .414.072.571.217.158.146.235.321.235.526v13.512z"/></g></g></svg>