<svg width="17" height="22" xmlns="http://www.w3.org/2000/svg" xmlns:sketch="http://www.bohemiancoding.com/sketch/ns"><title>ico_otp</title><g sketch:type="MSArtboardGroup" transform="translate(-41 -38)" fill="none"><g sketch:type="MSLayerGroup" fill="#007BC0"><path d="M57 46h-15c-.552 0-1 .45-1 1.007v11.986c0 .556.455 1.007 1 1.007h15c.552 0 1-.45 1-1.007v-11.986c0-.556-.455-1.007-1-1.007z" id="Path" sketch:type="MSShapeGroup"/><path d="M48 55v-5h3v5h-3z" id="Path" sketch:type="MSShapeGroup"/><path d="M43 46v-4.198c0-2.093 1.59-3.802 3.552-3.802h5.895c1.958 0 3.552 1.702 3.552 3.802v4.198h-2v-3.951c0-.703-1.153-2.049-1.8-2.049h-5.4c-.634 0-1.8 1.345-1.8 2.049v3.951h-2z" id="Path" sketch:type="MSShapeGroup"/></g><path d="M48 55v-5h3v5h-3z" fill="#fff" sketch:type="MSShapeGroup"/></g></svg>